<?xml version="1.0" encoding="UTF-8"?>
<svg xmlns="http://www.w3.org/2000/svg" xmlns:xlink="http://www.w3.org/1999/xlink" width="15pt" height="15pt" viewBox="0 0 15 15" version="1.1">
<g id="surface1">
<path style=" stroke:none;fill-rule:nonzero;fill:rgb(0%,0%,0%);fill-opacity:1;" d="M 14.160156 0.648438 C 13.707031 1 13.140625 1.441406 12.90625 1.621094 L 12.476562 1.957031 L 12.378906 1.878906 C 11.445312 1.132812 10.28125 0.59375 9.125 0.363281 C 7.128906 -0.03125 5.097656 0.355469 3.414062 1.457031 C 2.746094 1.890625 2.136719 2.441406 1.640625 3.050781 C 0.714844 4.203125 0.175781 5.523438 0.0273438 7 C 0.00390625 7.265625 0 7.957031 0.0234375 8.21875 C 0.152344 9.667969 0.675781 10.992188 1.570312 12.113281 C 3.179688 14.136719 5.730469 15.210938 8.34375 14.964844 C 11.089844 14.707031 13.484375 13.015625 14.585938 10.5625 C 14.664062 10.390625 14.753906 10.160156 14.746094 10.15625 C 14.742188 10.152344 14.679688 10.136719 14.609375 10.121094 C 14.542969 10.105469 14.339844 10.054688 14.160156 10.015625 C 13.984375 9.972656 13.738281 9.914062 13.621094 9.882812 C 13.5 9.855469 13.300781 9.808594 13.179688 9.78125 C 13.058594 9.75 12.816406 9.691406 12.636719 9.648438 C 12.460938 9.609375 12.257812 9.558594 12.1875 9.542969 C 12.117188 9.527344 12.054688 9.511719 12.046875 9.507812 C 12.039062 9.507812 11.992188 9.582031 11.933594 9.707031 C 11.679688 10.21875 11.378906 10.625 10.96875 11.015625 C 10.378906 11.578125 9.707031 11.957031 8.90625 12.175781 C 8.453125 12.296875 8.039062 12.347656 7.5 12.335938 C 7.164062 12.332031 7 12.316406 6.730469 12.269531 C 6.027344 12.144531 5.355469 11.867188 4.78125 11.464844 C 4.140625 11.011719 3.605469 10.390625 3.269531 9.699219 C 2.796875 8.730469 2.675781 7.640625 2.917969 6.574219 C 3.066406 5.921875 3.367188 5.277344 3.78125 4.738281 C 3.992188 4.46875 4.335938 4.117188 4.589844 3.917969 C 5.304688 3.351562 6.085938 3.027344 7.023438 2.898438 C 7.21875 2.875 7.789062 2.863281 8.003906 2.882812 C 8.746094 2.945312 9.40625 3.15625 10.050781 3.53125 C 10.207031 3.625 10.28125 3.671875 10.269531 3.683594 C 10.265625 3.683594 9.707031 4.117188 9.027344 4.644531 C 8.03125 5.421875 7.796875 5.605469 7.816406 5.617188 C 7.828125 5.621094 8.238281 5.695312 8.726562 5.78125 C 9.628906 5.945312 9.929688 6 11.671875 6.316406 C 12.742188 6.511719 14.144531 6.765625 14.65625 6.855469 C 14.835938 6.890625 14.988281 6.914062 14.992188 6.910156 C 14.992188 6.90625 14.992188 5.351562 14.992188 3.457031 L 14.988281 0.00390625 Z M 14.160156 0.648438 "/>
</g>
</svg>
